{"glyphs":{"0":{"ha":685,"x_min":96,"x_max":751,"o":"m 624 814 l 347 814 l 295 875 l 325 903 q 380 926 350 926 l 633 926 q 682 903 665 926 l 703 876 l 624 814 m 326 796 l 277 519 l 211 461 l 165 519 l 208 759 q 218 803 214 793 q 237 824 222 812 l 277 857 l 326 796 m 591 519 l 640 796 l 719 859 l 734 840 q 751 799 751 818 q 749 781 751 792 l 703 519 l 635 463 l 591 519 m 257 408 l 207 124 l 131 60 l 112 83 q 96 121 96 102 q 98 135 96 126 l 146 408 l 211 461 l 257 408 m 522 125 l 572 408 l 637 463 l 683 408 l 640 167 q 630 122 634 130 q 611 102 627 113 l 568 69 l 522 125 m 225 111 l 498 111 l 552 45 l 518 16 q 463 0 494 -1 l 218 0 q 167 18 183 0 l 145 45 l 225 111 z "},"1":{"ha":380,"x_min":171,"x_max":456,"o":"m 309 814 l 219 814 l 171 865 l 239 926 l 441 926 l 309 814 m 277 518 l 325 794 l 456 905 l 387 518 l 321 458 l 277 518 m 193 46 l 257 408 l 321 459 l 368 408 l 304 46 l 239 -9 l 193 46 z "},"2":{"ha":648,"x_min":59,"x_max":732,"o":"m 610 814 l 315 814 l 269 869 l 332 926 l 616 926 q 671 901 648 927 l 687 878 l 610 814 m 576 532 l 623 797 l 701 861 l 723 834 q 732 801 732 822 q 730 774 732 791 l 693 568 q 684 539 690 549 q 663 515 678 529 l 621 479 l 576 532 m 605 463 l 559 426 q 534 411 545 414 q 498 408 522 408 l 260 408 l 213 462 l 256 502 q 279 516 268 513 q 318 519 291 519 l 558 519 l 605 463 m 237 396 l 189 125 l 59 18 l 117 349 q 126 380 121 372 q 155 408 132 388 l 195 445 l 237 396 m 208 111 l 501 111 l 547 55 l 481 0 l 73 0 l 208 111 z "},"3":{"ha":593,"x_min":47,"x_max":659,"o":"m 534 814 l 245 814 l 197 869 l 265 926 l 538 926 q 573 921 563 926 q 596 900 583 917 l 613 878 l 534 814 m 501 532 l 549 800 l 627 861 l 643 842 q 659 802 659 824 q 654 771 659 793 l 619 569 q 592 519 613 538 l 548 480 l 501 532 m 193 519 l 481 519 l 530 465 l 462 408 l 174 408 l 125 465 l 193 519 m 429 123 l 477 391 l 545 449 l 567 423 q 585 382 585 403 q 583 361 585 374 l 544 144 q 534 114 541 125 q 511 90 528 104 l 477 62 l 429 123 m 121 111 l 410 111 l 461 48 l 429 20 q 363 0 406 0 l 92 0 l 47 55 l 121 111 z "},"4":{"ha":648,"x_min":135,"x_max":728,"o":"m 302 876 l 241 530 l 178 475 l 155 503 q 135 546 135 524 q 138 574 135 555 l 192 876 l 259 935 l 302 876 m 728 875 l 667 530 l 602 475 l 557 532 l 617 875 l 684 935 l 728 875 m 260 519 l 539 519 l 585 462 l 513 408 l 283 408 q 224 423 241 407 l 191 459 l 260 519 m 643 390 l 582 45 l 517 -9 l 471 45 l 532 390 l 597 443 l 643 390 z "},"5":{"ha":648,"x_min":119,"x_max":692,"o":"m 625 814 l 330 814 l 237 926 l 645 926 l 692 867 l 625 814 m 308 801 l 260 532 l 197 479 l 172 508 q 154 551 154 530 q 157 572 154 559 l 216 910 l 308 801 m 280 519 l 521 519 q 555 514 546 519 q 581 490 565 509 l 603 463 l 532 408 l 307 408 q 262 412 275 408 q 234 435 249 417 l 211 462 l 280 519 m 503 120 l 551 393 l 618 448 l 642 419 q 658 379 658 400 q 654 349 658 370 l 621 161 q 593 97 613 117 l 550 62 l 503 120 m 186 111 l 479 111 l 532 47 l 501 20 q 437 0 477 0 l 167 0 l 119 55 l 186 111 z "},"6":{"ha":667,"x_min":98,"x_max":712,"o":"m 644 814 l 348 814 l 296 874 l 331 904 q 359 921 346 917 q 397 926 372 926 l 663 926 l 712 872 l 644 814 m 326 801 l 279 532 l 215 479 l 168 532 l 210 775 q 220 807 214 796 q 242 831 227 818 l 278 860 l 326 801 m 298 519 l 543 519 q 574 514 565 519 q 595 494 583 510 l 620 463 l 552 408 l 278 408 l 231 463 l 298 519 m 255 395 l 207 125 l 134 65 l 111 94 q 98 126 98 111 q 100 150 98 135 l 142 388 l 212 448 l 255 395 m 522 122 l 569 393 l 634 445 l 662 412 q 675 381 675 396 q 671 340 675 367 l 638 157 q 627 118 634 132 q 604 92 621 105 l 569 61 l 522 122 m 226 111 l 499 111 l 551 46 l 525 24 q 492 4 506 9 q 449 0 479 0 l 238 0 q 192 4 203 0 q 167 24 180 7 l 149 46 l 226 111 z "},"7":{"ha":555,"x_min":153,"x_max":641,"o":"m 494 814 l 201 814 l 153 865 l 220 926 l 627 926 l 494 814 m 462 518 l 511 794 l 641 905 l 573 518 l 509 458 l 462 518 m 378 47 l 442 408 l 509 459 l 553 408 l 490 47 l 426 -9 l 378 47 z "},"8":{"ha":685,"x_min":98,"x_max":750,"o":"m 627 814 l 347 814 l 297 873 l 329 903 q 382 926 353 926 l 633 926 q 682 903 663 925 l 704 875 l 627 814 m 326 797 l 279 531 l 216 479 l 190 509 q 172 551 172 530 q 175 575 172 559 l 208 764 q 241 821 214 795 l 279 857 l 326 797 m 593 530 l 640 798 l 718 859 l 738 831 q 750 798 750 815 q 747 776 750 789 l 712 574 q 677 507 705 531 l 640 477 l 593 530 m 298 519 l 574 519 l 621 462 l 555 408 l 278 408 l 231 462 l 298 519 m 255 397 l 206 121 l 132 62 l 108 94 q 98 126 98 108 q 100 146 98 135 l 136 355 q 160 401 142 385 l 212 446 l 255 397 m 521 121 l 568 389 l 635 444 l 662 413 q 675 376 675 397 q 673 349 675 366 l 636 144 q 628 114 632 121 q 607 92 624 107 l 569 60 l 521 121 m 226 111 l 503 111 l 553 46 l 522 20 q 495 3 507 7 q 456 0 484 0 l 225 0 q 164 20 183 -1 l 145 45 l 226 111 z "},"9":{"ha":667,"x_min":118,"x_max":732,"o":"m 186 111 l 482 111 l 533 52 l 499 22 q 471 4 484 9 q 433 0 458 0 l 167 0 l 118 54 l 186 111 m 504 125 l 551 393 l 617 448 l 663 393 l 620 151 q 610 119 616 130 q 588 95 604 108 l 552 66 l 504 125 m 532 408 l 286 408 q 256 412 265 408 q 235 432 247 416 l 210 463 l 278 519 l 552 519 l 600 463 l 532 408 m 575 530 l 623 802 l 696 861 l 719 833 q 732 800 732 815 q 730 776 732 791 l 688 541 l 618 478 l 575 530 m 309 804 l 261 533 l 197 482 l 168 515 q 155 545 155 529 q 159 586 155 560 l 192 769 q 203 808 196 795 q 226 834 210 821 l 261 865 l 309 804 m 604 814 l 331 814 l 279 880 l 305 901 q 338 921 324 917 q 381 926 351 926 l 592 926 q 638 922 627 926 q 663 901 650 918 l 681 880 l 604 814 z "},"!":{"ha":342,"x_min":116,"x_max":381,"o":"m 381 873 l 319 518 l 255 463 l 208 518 l 270 873 l 338 935 l 381 873 m 299 407 l 259 182 l 196 127 l 148 182 l 188 407 l 255 463 l 299 407 m 247 111 l 227 0 l 116 0 l 136 111 l 247 111 z "},"\"":{"ha":481,"x_min":229,"x_max":553,"o":"m 368 926 l 340 769 l 274 713 l 229 769 l 256 926 l 368 926 m 553 926 l 525 769 l 459 713 l 414 769 l 441 926 l 553 926 z "},"#":{"ha":685,"x_min":113,"x_max":737,"o":"m 326 850 l 395 910 l 437 850 l 382 543 l 319 483 l 272 543 l 326 850 m 357 399 l 300 73 l 238 21 l 190 79 l 245 393 l 314 451 l 357 399 m 180 523 l 254 523 l 300 467 l 235 412 l 161 412 l 113 467 l 180 523 m 603 543 l 540 483 l 492 543 l 546 850 l 615 910 l 657 850 l 603 543 m 578 399 l 520 73 l 458 21 l 410 79 l 465 393 l 534 451 l 578 399 m 400 523 l 474 523 l 520 467 l 455 412 l 380 412 l 333 467 l 400 523 m 617 523 l 691 523 l 737 467 l 671 412 l 597 412 l 550 467 l 617 523 z "},"$":{"ha":685,"x_min":136,"x_max":711,"o":"m 573 1002 l 563 946 l 452 946 l 461 1002 l 532 1057 l 573 1002 m 644 814 l 348 814 l 298 871 l 330 899 q 362 923 355 920 q 400 926 370 926 l 663 926 l 711 867 l 644 814 m 326 800 l 279 530 l 213 477 l 193 500 q 173 547 173 524 q 175 572 173 560 l 208 761 q 237 825 216 807 l 279 859 l 326 800 m 297 519 l 543 519 q 571 515 565 519 q 599 486 578 511 l 619 462 l 551 408 l 319 408 q 276 411 288 408 q 252 429 264 415 l 226 460 l 297 519 m 521 119 l 569 391 l 635 444 l 660 414 q 676 377 676 395 q 671 337 676 368 l 636 142 q 603 90 630 111 l 568 62 l 521 119 m 205 111 l 498 111 l 550 47 l 515 18 q 452 0 494 0 l 185 0 l 136 47 l 205 111 m 391 -31 l 381 -85 l 313 -142 l 269 -85 l 279 -31 l 391 -31 z "},"%":{"ha":1078,"x_min":137,"x_max":1104,"o":"m 991 711 l 690 456 l 613 456 l 625 526 l 925 781 l 1004 781 l 991 711 m 600 387 l 300 132 l 222 132 l 235 201 l 534 456 l 613 456 l 600 387 m 477 814 l 314 814 l 262 878 l 300 911 q 318 924 311 922 q 349 926 326 926 l 479 926 q 509 922 502 926 q 533 901 517 919 l 554 878 l 477 814 m 294 800 l 246 531 l 172 473 l 156 494 q 137 531 137 519 q 140 562 137 541 l 178 772 q 186 809 183 802 q 206 831 190 816 l 242 863 l 294 800 m 449 531 l 496 800 l 570 863 l 587 844 q 606 802 606 822 q 604 781 606 791 l 565 556 q 556 523 560 531 q 533 498 551 515 l 503 470 l 449 531 m 264 519 l 429 519 l 483 455 l 464 439 q 406 408 430 408 l 262 408 q 227 411 237 408 q 207 429 217 415 l 186 455 l 264 519 m 975 408 l 812 408 l 760 471 l 797 504 q 816 517 809 515 q 846 519 823 519 l 977 519 q 1007 515 1000 519 q 1031 494 1015 512 l 1052 472 l 975 408 m 791 393 l 744 124 l 669 65 l 654 87 q 636 111 639 106 q 634 123 634 115 q 638 155 634 132 l 675 364 q 684 401 680 394 q 704 423 688 408 l 740 455 l 791 393 m 947 124 l 994 393 l 1067 455 l 1084 436 q 1104 394 1104 414 q 1102 374 1104 385 l 1063 149 q 1054 115 1058 123 q 1031 90 1049 107 l 1000 62 l 947 124 m 762 111 l 926 111 l 980 48 l 962 31 q 903 0 927 0 l 760 0 q 724 4 734 0 q 704 21 715 7 l 684 48 l 762 111 z "},"&":{"ha":713,"x_min":98,"x_max":794,"o":"m 640 814 l 349 814 l 298 875 l 326 899 q 355 922 345 918 q 385 926 364 926 l 660 926 l 708 867 l 640 814 m 326 800 l 279 534 l 215 479 l 189 511 q 173 553 173 531 q 175 573 173 562 l 210 768 q 245 832 217 808 l 277 859 l 326 800 m 725 646 l 705 534 l 639 478 l 593 533 l 614 646 l 682 702 l 725 646 m 296 519 l 577 519 l 621 463 l 552 408 l 275 408 l 231 463 l 296 519 m 737 533 l 794 462 l 712 392 l 652 462 l 737 533 m 254 392 l 206 121 l 134 62 l 110 92 q 98 129 98 106 q 100 151 98 139 l 134 342 q 143 379 139 370 q 160 400 148 389 l 212 447 l 254 392 m 521 119 l 569 392 l 637 447 l 680 392 l 637 145 q 608 92 631 113 l 569 60 l 521 119 m 227 111 l 498 111 l 552 46 l 519 19 q 434 0 494 -1 l 223 0 q 168 18 183 0 l 147 45 l 227 111 z "},"'":{"ha":296,"x_min":229,"x_max":368,"o":"m 368 926 l 340 769 l 274 713 l 229 769 l 256 926 l 368 926 z "},"(":{"ha":370,"x_min":98,"x_max":505,"o":"m 435 814 l 349 814 l 298 876 l 323 901 q 372 926 349 925 l 455 926 l 505 869 l 435 814 m 327 802 l 277 517 l 214 461 l 165 517 l 210 767 q 219 804 214 794 q 239 827 224 814 l 279 861 l 327 802 m 256 406 l 208 126 l 132 64 l 113 90 q 98 128 98 110 q 100 147 98 137 l 146 406 l 212 461 l 256 406 m 227 111 l 311 111 l 360 54 l 292 0 l 218 0 q 168 23 188 -1 l 149 45 l 227 111 z "},")":{"ha":370,"x_min":28,"x_max":435,"o":"m 98 111 l 185 111 l 236 50 l 210 25 q 161 0 185 1 l 79 0 l 28 57 l 98 111 m 207 124 l 257 409 l 320 465 l 368 409 l 324 159 q 314 122 319 132 q 294 98 309 112 l 254 64 l 207 124 m 277 521 l 326 800 l 401 863 l 421 836 q 435 798 435 817 q 433 779 435 789 l 388 521 l 321 465 l 277 521 m 306 814 l 222 814 l 174 871 l 241 926 l 315 926 q 366 903 345 926 l 385 880 l 306 814 z "},"*":{"ha":570,"x_min":176,"x_max":663,"o":"m 488 900 l 463 758 l 418 708 l 380 771 l 402 896 l 450 935 l 488 900 m 636 688 l 507 662 l 433 691 l 481 739 l 608 767 l 663 737 l 636 688 m 496 480 l 425 589 l 431 667 l 493 637 l 558 532 l 556 471 l 496 480 m 240 553 l 331 652 l 406 669 l 399 601 l 312 503 l 248 499 l 240 553 m 227 814 l 357 758 l 400 692 l 328 680 l 201 732 l 176 789 l 227 814 z "},"+":{"ha":685,"x_min":83,"x_max":764,"o":"m 528 773 l 484 534 l 419 479 l 373 534 l 419 784 l 484 832 l 528 773 m 151 519 l 358 519 l 404 463 l 338 408 l 130 408 l 83 462 l 151 519 m 502 519 l 716 519 l 764 463 l 695 408 l 481 408 l 435 463 l 502 519 m 458 397 l 414 157 l 353 108 l 305 168 l 346 387 l 416 448 l 458 397 z "},",":{"ha":296,"x_min":85,"x_max":224,"o":"m 224 111 l 196 -45 l 130 -102 l 85 -45 l 113 111 l 224 111 z "},"-":{"ha":380,"x_min":111,"x_max":406,"o":"m 324 333 l 149 333 l 111 418 l 191 444 l 368 444 l 406 359 l 324 333 z "},".":{"ha":296,"x_min":93,"x_max":224,"o":"m 224 111 l 204 0 l 93 0 l 113 111 l 224 111 z "},"/":{"ha":695,"x_min":18,"x_max":840,"o":"m 827 856 l 492 463 l 429 463 l 427 538 l 759 926 l 840 926 l 827 856 m 432 393 l 96 0 l 18 0 l 31 75 l 363 463 l 429 463 l 432 393 z "},":":{"ha":296,"x_min":93,"x_max":276,"o":"m 276 407 l 256 296 l 145 296 l 165 407 l 276 407 m 224 111 l 204 0 l 93 0 l 113 111 l 224 111 z "},";":{"ha":296,"x_min":85,"x_max":275,"o":"m 275 407 l 256 296 l 145 296 l 165 407 l 275 407 m 224 111 l 196 -45 l 130 -102 l 85 -45 l 113 111 l 224 111 z "},"<":{"ha":694,"x_min":130,"x_max":768,"o":"m 768 812 l 768 725 l 232 476 l 768 215 l 768 128 l 130 437 l 130 516 l 768 812 z "},"=":{"ha":685,"x_min":67,"x_max":781,"o":"m 732 611 l 781 555 l 713 500 l 148 500 l 100 554 l 168 611 l 732 611 m 700 426 l 748 370 l 680 315 l 115 315 l 67 369 l 135 426 l 700 426 z "},">":{"ha":694,"x_min":131,"x_max":766,"o":"m 131 812 l 766 502 l 766 422 l 131 128 l 131 215 l 665 461 l 131 725 l 131 812 z "},"?":{"ha":648,"x_min":56,"x_max":732,"o":"m 606 814 l 311 814 l 267 869 l 330 926 l 618 926 q 646 921 636 926 q 667 901 656 916 l 684 880 l 606 814 m 576 533 l 623 798 l 699 861 l 721 832 q 732 800 732 818 q 728 770 732 789 l 692 565 q 656 511 686 536 l 619 480 l 576 533 m 600 466 l 557 429 q 494 408 533 409 l 258 408 l 212 465 l 256 503 q 293 519 274 519 l 319 519 l 557 519 l 600 466 m 237 396 l 199 185 l 134 130 l 88 185 l 117 351 q 129 387 122 376 q 157 416 135 398 l 195 448 l 237 396 m 186 111 l 167 0 l 56 0 l 75 111 l 186 111 z "},"@":{"ha":809,"x_min":97,"x_max":855,"o":"m 762 817 l 826 867 l 843 840 q 855 814 855 823 q 853 796 855 807 l 827 648 l 772 606 l 733 651 l 762 817 m 714 646 l 755 602 l 699 557 l 465 557 l 422 602 l 453 627 q 477 643 469 640 q 504 646 486 646 l 714 646 m 715 548 l 766 589 l 808 542 l 770 327 l 722 283 l 677 332 l 715 548 m 408 329 l 349 281 l 328 304 q 316 336 316 318 q 317 357 316 348 l 344 503 q 353 540 349 530 q 372 560 358 550 l 406 587 l 446 546 l 408 329 m 663 320 l 709 268 l 688 251 q 661 234 671 237 q 620 231 650 231 l 440 231 q 404 235 414 231 q 382 251 394 238 l 367 268 l 430 320 l 663 320 m 753 833 l 330 833 l 284 881 l 309 903 q 363 922 330 922 l 758 922 q 799 903 786 922 l 814 882 l 753 833 m 319 811 l 269 526 l 211 471 l 167 526 l 210 767 q 235 827 218 812 l 275 861 l 319 811 m 247 401 l 197 121 l 127 59 l 107 85 q 97 121 97 100 q 99 142 97 130 l 144 401 l 207 456 l 247 401 m 207 102 l 694 102 l 745 54 l 676 0 l 214 0 q 163 23 183 -1 l 144 45 l 207 102 z "},"A":{"ha":685,"x_min":83,"x_max":751,"o":"m 627 814 l 350 814 l 296 876 l 334 909 q 357 923 346 920 q 393 926 368 926 l 631 926 q 680 909 662 926 l 704 877 l 627 814 m 328 804 l 280 535 l 216 481 l 169 535 l 210 767 q 221 808 215 796 q 245 835 228 821 l 279 862 l 328 804 m 594 533 l 642 800 l 718 862 l 730 847 q 751 803 751 822 q 748 775 751 793 l 706 535 l 640 479 l 594 533 m 298 519 l 578 519 l 622 465 l 553 408 l 278 408 l 229 462 l 298 519 m 255 395 l 195 52 l 131 -9 l 83 52 l 144 395 l 211 448 l 255 395 m 681 395 l 621 52 l 555 -9 l 509 52 l 570 393 l 636 448 l 681 395 z "},"B":{"ha":685,"x_min":77,"x_max":751,"o":"m 626 814 l 347 814 l 256 926 l 635 926 q 665 921 654 926 q 688 901 676 916 l 705 878 l 626 814 m 326 798 l 279 531 l 216 479 l 168 531 l 235 911 l 326 798 m 593 531 l 641 798 l 719 860 l 737 837 q 751 803 751 821 q 748 777 751 792 l 712 572 q 690 519 705 532 l 637 479 l 593 531 m 551 408 l 277 408 l 232 463 l 299 519 l 576 519 l 621 463 l 551 408 m 254 394 l 207 123 l 77 19 l 143 392 l 214 447 l 254 394 m 522 121 l 569 392 l 637 447 l 657 422 q 677 382 677 398 q 674 358 677 373 l 637 147 q 609 95 631 115 l 570 63 l 522 121 m 229 111 l 498 111 l 553 47 l 528 26 q 465 0 499 1 l 91 0 l 229 111 z "},"C":{"ha":593,"x_min":98,"x_max":709,"o":"m 637 814 l 350 814 l 299 877 l 328 901 q 357 921 346 917 q 389 926 368 926 l 656 926 l 709 870 l 637 814 m 327 802 l 277 519 l 212 463 l 166 519 l 210 766 q 219 805 215 797 q 240 827 222 812 l 281 863 l 327 802 m 257 408 l 208 127 l 133 66 l 110 95 q 98 128 98 109 q 104 165 98 136 l 146 408 l 212 463 l 257 408 m 224 111 l 513 111 l 562 55 l 493 0 l 239 0 q 172 20 191 -1 l 149 50 l 224 111 z "},"D":{"ha":685,"x_min":78,"x_max":750,"o":"m 627 814 l 350 814 l 255 926 l 627 926 q 660 922 651 926 q 682 901 669 918 l 704 874 l 627 814 m 327 803 l 278 527 l 215 467 l 167 527 l 235 910 l 327 803 m 591 519 l 640 795 l 718 858 l 739 832 q 750 798 750 818 q 747 769 750 787 l 703 519 l 640 459 l 591 519 m 258 416 l 208 131 l 78 21 l 146 409 l 215 467 l 258 416 m 572 408 l 640 459 l 683 408 l 640 158 q 629 118 634 130 q 612 96 624 106 l 572 62 l 522 120 l 572 408 m 225 111 l 500 111 l 555 45 l 533 24 q 461 0 505 -1 l 90 0 l 225 111 z "},"E":{"ha":593,"x_min":77,"x_max":709,"o":"m 637 814 l 346 814 l 254 926 l 657 926 l 709 869 l 637 814 m 326 801 l 279 534 l 216 478 l 168 534 l 235 911 l 326 801 m 566 408 l 277 408 l 229 462 l 296 519 l 585 519 l 634 462 l 566 408 m 255 396 l 207 125 l 77 20 l 142 386 l 214 446 l 255 396 m 227 111 l 513 111 l 562 54 l 494 0 l 90 0 l 227 111 z "},"F":{"ha":593,"x_min":83,"x_max":709,"o":"m 637 814 l 349 814 l 256 926 l 657 926 l 709 871 l 637 814 m 326 802 l 279 536 l 217 480 l 168 536 l 235 913 l 326 802 m 297 519 l 585 519 l 635 465 l 566 408 l 277 408 l 230 462 l 297 519 m 255 397 l 194 50 l 131 -9 l 83 50 l 142 389 l 212 448 l 255 397 z "},"G":{"ha":667,"x_min":97,"x_max":711,"o":"m 644 814 l 351 814 l 300 872 l 329 897 q 363 922 353 918 q 401 926 374 926 l 663 926 l 711 872 l 644 814 m 327 804 l 274 505 l 210 454 l 164 512 l 210 768 q 221 803 214 791 q 246 830 228 815 l 281 857 l 327 804 m 256 401 l 207 121 l 132 62 l 114 83 q 97 122 97 104 q 101 155 97 130 l 144 401 l 210 454 l 256 401 m 493 512 l 685 512 l 551 401 l 473 401 l 425 454 l 493 512 m 521 119 l 568 387 l 698 493 l 637 147 q 627 110 632 120 q 603 85 621 100 l 570 58 l 521 119 m 226 111 l 500 111 l 553 43 l 516 14 q 460 0 497 0 l 242 0 q 195 3 209 0 q 172 18 181 7 l 146 45 l 226 111 z "},"H":{"ha":685,"x_min":83,"x_max":765,"o":"m 339 873 l 279 534 l 217 479 l 168 534 l 228 873 l 298 935 l 339 873 m 765 873 l 705 534 l 642 479 l 594 534 l 654 873 l 722 935 l 765 873 m 298 519 l 576 519 l 623 463 l 557 408 l 279 408 l 231 463 l 298 519 m 255 395 l 194 49 l 131 -9 l 83 49 l 143 392 l 212 448 l 255 395 m 680 392 l 620 49 l 555 -9 l 509 49 l 568 387 l 635 442 l 680 392 z "},"I":{"ha":259,"x_min":83,"x_max":339,"o":"m 339 873 l 277 518 l 213 461 l 165 518 l 228 873 l 296 935 l 339 873 m 257 408 l 194 50 l 130 -9 l 83 50 l 146 408 l 213 461 l 257 408 z "},"J":{"ha":667,"x_min":79,"x_max":747,"o":"m 747 873 l 684 518 l 621 461 l 573 518 l 636 873 l 705 935 l 747 873 m 665 408 l 621 160 q 606 112 616 129 q 575 79 597 96 l 552 62 l 504 126 l 553 408 l 621 462 l 665 408 m 239 408 l 189 126 l 113 62 l 98 79 q 79 123 79 103 q 84 160 79 134 l 127 408 l 195 462 l 239 408 m 205 111 l 482 111 l 532 47 l 499 22 q 467 3 479 6 q 418 0 455 0 l 216 0 q 170 4 182 0 q 146 22 158 7 l 127 45 l 205 111 z "},"K":{"ha":685,"x_min":83,"x_max":774,"o":"m 340 878 l 279 535 l 218 481 l 168 535 l 229 878 l 298 935 l 340 878 m 759 840 l 395 542 l 305 542 l 320 626 l 691 926 l 774 926 l 759 840 m 301 519 l 530 519 q 567 517 560 519 q 588 500 574 515 l 622 465 l 552 408 l 281 408 l 233 464 l 301 519 m 255 395 l 194 50 l 131 -9 l 83 50 l 143 393 l 212 450 l 255 395 m 509 50 l 569 393 l 636 449 l 655 426 q 677 384 677 399 q 675 366 677 378 l 620 50 l 554 -9 l 509 50 z "},"L":{"ha":555,"x_min":77,"x_max":565,"o":"m 339 873 l 277 518 l 213 462 l 165 518 l 228 873 l 296 935 l 339 873 m 257 408 l 208 128 l 77 19 l 146 408 l 213 462 l 257 408 m 227 111 l 518 111 l 565 55 l 498 0 l 93 0 l 227 111 z "},"M":{"ha":685,"x_min":83,"x_max":754,"o":"m 625 814 l 350 814 l 298 877 l 354 926 l 664 926 l 701 877 l 625 814 m 540 790 l 501 572 l 437 519 l 390 572 l 429 790 l 540 790 m 327 802 l 277 519 l 214 464 l 166 519 l 216 806 l 281 861 l 327 802 m 754 810 l 703 519 l 637 464 l 592 519 l 641 797 l 716 858 l 754 810 m 257 408 l 195 52 l 130 -9 l 83 52 l 146 408 l 214 464 l 257 408 m 683 408 l 621 52 l 554 -9 l 509 52 l 572 408 l 637 464 l 683 408 z "},"N":{"ha":685,"x_min":83,"x_max":766,"o":"m 340 877 l 277 518 l 213 463 l 165 518 l 229 877 l 296 935 l 340 877 m 430 877 l 583 608 l 567 519 l 507 519 l 350 792 l 365 877 l 430 877 m 766 877 l 703 518 l 636 463 l 591 518 l 655 877 l 720 935 l 766 877 m 257 408 l 195 52 l 130 -9 l 83 52 l 146 408 l 213 463 l 257 408 m 683 408 l 621 52 l 553 -9 l 509 52 l 572 408 l 636 463 l 683 408 z "},"O":{"ha":685,"x_min":97,"x_max":751,"o":"m 625 814 l 347 814 l 298 875 l 332 903 q 388 926 359 925 l 632 926 q 660 921 649 926 q 680 903 670 916 l 702 876 l 625 814 m 326 800 l 277 519 l 211 461 l 166 519 l 208 759 q 218 802 214 793 q 237 824 222 812 l 279 860 l 326 800 m 591 519 l 641 796 l 718 859 l 734 840 q 751 799 751 819 q 749 781 751 791 l 703 519 l 636 463 l 591 519 m 257 408 l 208 124 l 131 62 l 112 85 q 97 123 97 102 q 98 137 97 127 l 146 408 l 211 461 l 257 408 m 522 125 l 572 408 l 637 463 l 683 408 l 641 167 q 631 122 634 130 q 612 102 627 115 l 570 67 l 522 125 m 226 111 l 498 111 l 549 51 l 511 16 q 454 0 486 -1 l 220 0 q 169 16 184 0 l 146 45 l 226 111 z "},"P":{"ha":667,"x_min":83,"x_max":750,"o":"m 625 814 l 348 814 l 258 926 l 621 926 q 659 921 648 926 q 683 900 669 917 l 702 878 l 625 814 m 326 798 l 279 532 l 217 479 l 168 532 l 235 912 l 326 798 m 594 532 l 641 798 l 717 861 l 730 845 q 750 796 750 822 q 749 780 750 787 l 715 589 q 704 544 709 555 q 684 519 699 532 l 636 479 l 594 532 m 299 519 l 576 519 l 618 465 l 574 429 q 544 411 555 415 q 509 408 533 408 l 278 408 l 233 463 l 299 519 m 255 397 l 194 49 l 131 -9 l 83 49 l 142 389 l 212 448 l 255 397 z "},"Q":{"ha":685,"x_min":100,"x_max":751,"o":"m 625 814 l 352 814 l 300 876 l 330 901 q 399 926 363 926 l 618 926 q 662 922 651 926 q 686 901 673 918 l 703 880 l 625 814 m 327 802 l 277 518 l 211 464 l 165 518 l 211 778 q 223 813 216 802 q 254 842 231 825 l 280 861 l 327 802 m 591 518 l 640 799 l 718 862 l 730 848 q 751 802 751 825 q 748 778 751 793 l 703 518 l 637 464 l 591 518 m 257 407 l 208 125 l 136 66 l 117 89 q 100 135 100 109 q 101 155 100 146 l 146 407 l 211 464 l 257 407 m 536 203 l 572 407 l 637 464 l 683 407 l 646 201 l 583 149 l 536 203 m 226 111 l 410 111 l 459 52 l 395 0 l 242 0 q 196 5 212 0 q 170 25 180 11 l 151 49 l 226 111 m 452 184 l 523 184 l 646 43 l 634 -25 l 560 -25 l 439 111 l 452 184 z "},"R":{"ha":685,"x_min":83,"x_max":751,"o":"m 624 814 l 349 814 l 257 926 l 627 926 q 675 909 659 926 l 703 878 l 624 814 m 326 798 l 279 532 l 218 482 l 168 532 l 235 909 l 326 798 m 594 532 l 641 798 l 718 861 l 735 843 q 751 802 751 825 q 749 778 751 795 l 712 572 q 687 519 707 540 l 638 478 l 594 532 m 302 519 l 575 519 l 621 463 l 575 423 q 552 410 564 413 q 512 408 541 408 l 280 408 l 231 463 l 302 519 m 255 396 l 194 48 l 131 -9 l 83 48 l 142 385 l 212 447 l 255 396 m 357 385 l 624 71 l 610 -9 l 544 -9 l 267 319 l 278 385 l 357 385 z "},"S":{"ha":685,"x_min":138,"x_max":711,"o":"m 644 814 l 348 814 l 296 876 l 329 904 q 358 923 347 920 q 399 926 368 926 l 663 926 l 711 868 l 644 814 m 326 802 l 279 533 l 213 479 l 194 501 q 173 553 173 526 q 176 576 173 562 l 209 765 q 222 809 214 795 q 250 839 229 823 l 279 861 l 326 802 m 299 519 l 537 519 q 577 514 566 519 q 604 488 589 509 l 622 464 l 553 408 l 313 408 q 276 414 289 408 q 248 439 263 420 l 229 463 l 299 519 m 522 121 l 568 390 l 636 444 l 659 414 q 675 374 675 393 q 673 352 675 366 l 636 142 q 606 91 631 113 l 570 62 l 522 121 m 205 111 l 499 111 l 553 47 l 527 24 q 496 5 510 9 q 456 0 483 0 l 185 0 l 138 54 l 205 111 z "},"T":{"ha":574,"x_min":172,"x_max":709,"o":"m 642 814 l 222 814 l 172 868 l 234 926 l 662 926 l 709 868 l 642 814 m 478 788 l 429 511 l 364 458 l 319 519 l 367 788 l 478 788 m 411 408 l 347 45 l 282 -9 l 236 45 l 300 408 l 364 458 l 411 408 z "},"U":{"ha":685,"x_min":98,"x_max":766,"o":"m 339 876 l 277 518 l 214 464 l 165 518 l 229 876 l 296 935 l 339 876 m 766 876 l 703 518 l 636 464 l 591 518 l 654 876 l 720 935 l 766 876 m 257 408 l 207 123 l 132 65 l 115 84 q 98 126 98 105 q 101 157 98 136 l 146 408 l 214 465 l 257 408 m 683 408 l 637 147 q 627 115 633 125 q 603 90 621 106 l 570 63 l 522 123 l 572 408 l 636 465 l 683 408 m 224 111 l 499 111 l 552 48 l 521 22 q 490 4 503 8 q 448 0 477 0 l 236 0 q 194 4 208 0 q 170 22 181 9 l 146 50 l 224 111 z "},"V":{"ha":667,"x_min":83,"x_max":766,"o":"m 340 876 l 277 518 l 214 463 l 165 518 l 229 876 l 297 935 l 340 876 m 766 876 l 703 518 l 637 463 l 591 518 l 654 876 l 720 935 l 766 876 m 257 408 l 194 48 l 130 -9 l 83 48 l 146 408 l 214 463 l 257 408 m 602 381 l 222 69 l 252 237 l 529 463 l 610 463 l 602 381 z "},"W":{"ha":685,"x_min":95,"x_max":766,"o":"m 224 111 l 499 111 l 551 49 l 495 0 l 186 0 l 148 49 l 224 111 m 309 136 l 348 355 l 412 408 l 459 355 l 420 136 l 309 136 m 522 123 l 572 408 l 635 463 l 684 408 l 633 120 l 568 65 l 522 123 m 95 116 l 146 408 l 212 463 l 257 408 l 208 129 l 133 68 l 95 116 m 592 518 l 654 875 l 719 935 l 766 875 l 703 518 l 635 462 l 592 518 m 166 518 l 229 875 l 295 935 l 340 875 l 277 518 l 212 462 l 166 518 z "},"X":{"ha":611,"x_min":37,"x_max":738,"o":"m 274 926 l 397 566 l 380 471 l 313 471 l 185 838 l 201 926 l 274 926 m 738 926 l 720 825 l 489 471 l 402 471 l 419 566 l 653 926 l 738 926 m 376 448 l 359 354 l 127 0 l 37 0 l 53 87 l 289 448 l 376 448 m 469 448 l 590 87 l 574 0 l 503 0 l 382 354 l 398 448 l 469 448 z "},"Y":{"ha":667,"x_min":125,"x_max":747,"o":"m 321 873 l 260 533 l 199 479 l 178 503 q 155 553 155 529 q 158 582 155 566 l 210 873 l 279 935 l 321 873 m 747 873 l 686 533 l 623 477 l 575 533 l 635 873 l 704 935 l 747 873 m 280 519 l 557 519 l 604 463 l 536 408 l 323 408 q 266 412 279 408 q 237 436 253 416 l 214 463 l 280 519 m 662 393 l 619 150 q 587 92 612 114 l 550 62 l 503 122 l 550 391 l 618 447 l 662 393 m 186 111 l 485 111 l 533 49 l 496 17 q 470 3 483 6 q 427 0 458 0 l 167 0 l 125 60 l 186 111 z "},"Z":{"ha":574,"x_min":47,"x_max":690,"o":"m 644 926 l 690 870 l 624 814 l 248 814 l 201 870 l 268 926 l 644 926 m 620 705 l 456 481 l 375 460 l 368 549 l 545 791 l 620 791 l 620 705 m 380 377 l 203 134 l 118 134 l 118 205 l 288 439 l 374 460 l 380 377 m 500 111 l 547 56 l 480 0 l 95 0 l 47 56 l 115 111 l 500 111 z "},"[":{"ha":370,"x_min":96,"x_max":512,"o":"m 359 926 l 460 926 l 512 873 l 441 814 l 346 814 l 295 873 l 359 926 m 326 801 l 277 520 l 214 465 l 165 520 l 216 810 l 277 860 l 326 801 m 207 125 l 142 69 l 96 125 l 144 406 l 213 464 l 256 410 l 207 125 m 199 0 l 157 54 l 222 111 l 317 111 l 368 53 l 297 0 l 199 0 z "},"\\":{"ha":695,"x_min":170,"x_max":688,"o":"m 182 926 l 249 926 l 448 538 l 429 463 l 372 463 l 170 859 l 182 926 m 488 463 l 688 72 l 675 0 l 611 0 l 410 393 l 429 463 l 488 463 z "},"]":{"ha":370,"x_min":50,"x_max":466,"o":"m 203 0 l 101 0 l 50 53 l 121 111 l 216 111 l 267 53 l 203 0 m 236 125 l 286 406 l 348 461 l 396 406 l 345 116 l 285 66 l 236 125 m 355 800 l 420 857 l 466 801 l 417 519 l 349 463 l 305 515 l 355 800 m 362 926 l 405 872 l 340 814 l 245 814 l 194 873 l 264 926 l 362 926 z "},"^":{"ha":694,"x_min":31,"x_max":663,"o":"m 151 502 l 31 502 l 274 929 l 420 929 l 663 502 l 543 502 l 346 840 l 151 502 z "},"_":{"ha":694,"x_min":0,"x_max":694,"o":"m 0 -94 l 694 -94 l 694 -159 l 0 -159 l 0 -94 z "},"`":{"ha":694,"x_min":329,"x_max":600,"o":"m 460 1138 l 600 999 l 471 999 l 329 1138 l 460 1138 z "},"a":{"ha":685,"x_min":83,"x_max":751,"o":"m 627 814 l 350 814 l 296 876 l 334 909 q 357 923 346 920 q 393 926 368 926 l 631 926 q 680 909 662 926 l 704 877 l 627 814 m 328 804 l 280 535 l 216 481 l 169 535 l 210 767 q 221 808 215 796 q 245 835 228 821 l 279 862 l 328 804 m 594 533 l 642 800 l 718 862 l 730 847 q 751 803 751 822 q 748 775 751 793 l 706 535 l 640 479 l 594 533 m 298 519 l 578 519 l 622 465 l 553 408 l 278 408 l 229 462 l 298 519 m 255 395 l 195 52 l 131 -9 l 83 52 l 144 395 l 211 448 l 255 395 m 681 395 l 621 52 l 555 -9 l 509 52 l 570 393 l 636 448 l 681 395 z "},"b":{"ha":685,"x_min":77,"x_max":751,"o":"m 626 814 l 347 814 l 256 926 l 635 926 q 665 921 654 926 q 688 901 676 916 l 705 878 l 626 814 m 326 798 l 279 531 l 216 479 l 168 531 l 235 911 l 326 798 m 593 531 l 641 798 l 719 860 l 737 837 q 751 803 751 821 q 748 777 751 792 l 712 572 q 690 519 705 532 l 637 479 l 593 531 m 551 408 l 277 408 l 232 463 l 299 519 l 576 519 l 621 463 l 551 408 m 254 394 l 207 123 l 77 19 l 143 392 l 214 447 l 254 394 m 522 121 l 569 392 l 637 447 l 657 422 q 677 382 677 398 q 674 358 677 373 l 637 147 q 609 95 631 115 l 570 63 l 522 121 m 229 111 l 498 111 l 553 47 l 528 26 q 465 0 499 1 l 91 0 l 229 111 z "},"c":{"ha":593,"x_min":98,"x_max":709,"o":"m 637 814 l 350 814 l 299 877 l 328 901 q 357 921 346 917 q 389 926 368 926 l 656 926 l 709 870 l 637 814 m 327 802 l 277 519 l 212 463 l 166 519 l 210 766 q 219 805 215 797 q 240 827 222 812 l 281 863 l 327 802 m 257 408 l 208 127 l 133 66 l 110 95 q 98 128 98 109 q 104 165 98 136 l 146 408 l 212 463 l 257 408 m 224 111 l 513 111 l 562 55 l 493 0 l 239 0 q 172 20 191 -1 l 149 50 l 224 111 z "},"d":{"ha":685,"x_min":78,"x_max":750,"o":"m 627 814 l 350 814 l 255 926 l 627 926 q 660 922 651 926 q 682 901 669 918 l 704 874 l 627 814 m 327 803 l 278 527 l 215 467 l 167 527 l 235 910 l 327 803 m 591 519 l 640 795 l 718 858 l 739 832 q 750 798 750 818 q 747 769 750 787 l 703 519 l 640 459 l 591 519 m 258 416 l 208 131 l 78 21 l 146 409 l 215 467 l 258 416 m 572 408 l 640 459 l 683 408 l 640 158 q 629 118 634 130 q 612 96 624 106 l 572 62 l 522 120 l 572 408 m 225 111 l 500 111 l 555 45 l 533 24 q 461 0 505 -1 l 90 0 l 225 111 z "},"e":{"ha":593,"x_min":77,"x_max":709,"o":"m 637 814 l 346 814 l 254 926 l 657 926 l 709 869 l 637 814 m 326 801 l 279 534 l 216 478 l 168 534 l 235 911 l 326 801 m 566 408 l 277 408 l 229 462 l 296 519 l 585 519 l 634 462 l 566 408 m 255 396 l 207 125 l 77 20 l 142 386 l 214 446 l 255 396 m 227 111 l 513 111 l 562 54 l 494 0 l 90 0 l 227 111 z "},"f":{"ha":593,"x_min":83,"x_max":709,"o":"m 637 814 l 349 814 l 256 926 l 657 926 l 709 871 l 637 814 m 326 802 l 279 536 l 217 480 l 168 536 l 235 913 l 326 802 m 297 519 l 585 519 l 635 465 l 566 408 l 277 408 l 230 462 l 297 519 m 255 397 l 194 50 l 131 -9 l 83 50 l 142 389 l 212 448 l 255 397 z "},"g":{"ha":667,"x_min":97,"x_max":711,"o":"m 644 814 l 351 814 l 300 872 l 329 897 q 363 922 353 918 q 401 926 374 926 l 663 926 l 711 872 l 644 814 m 327 804 l 274 505 l 210 454 l 164 512 l 210 768 q 221 803 214 791 q 246 830 228 815 l 281 857 l 327 804 m 256 401 l 207 121 l 132 62 l 114 83 q 97 122 97 104 q 101 155 97 130 l 144 401 l 210 454 l 256 401 m 493 512 l 685 512 l 551 401 l 473 401 l 425 454 l 493 512 m 521 119 l 568 387 l 698 493 l 637 147 q 627 110 632 120 q 603 85 621 100 l 570 58 l 521 119 m 226 111 l 500 111 l 553 43 l 516 14 q 460 0 497 0 l 242 0 q 195 3 209 0 q 172 18 181 7 l 146 45 l 226 111 z "},"h":{"ha":685,"x_min":83,"x_max":765,"o":"m 339 873 l 279 534 l 217 479 l 168 534 l 228 873 l 298 935 l 339 873 m 765 873 l 705 534 l 642 479 l 594 534 l 654 873 l 722 935 l 765 873 m 298 519 l 576 519 l 623 463 l 557 408 l 279 408 l 231 463 l 298 519 m 255 395 l 194 49 l 131 -9 l 83 49 l 143 392 l 212 448 l 255 395 m 680 392 l 620 49 l 555 -9 l 509 49 l 568 387 l 635 442 l 680 392 z "},"i":{"ha":259,"x_min":83,"x_max":339,"o":"m 339 873 l 277 518 l 213 461 l 165 518 l 228 873 l 296 935 l 339 873 m 257 408 l 194 50 l 130 -9 l 83 50 l 146 408 l 213 461 l 257 408 z "},"j":{"ha":667,"x_min":79,"x_max":747,"o":"m 747 873 l 684 518 l 621 461 l 573 518 l 636 873 l 705 935 l 747 873 m 665 408 l 621 160 q 606 112 616 129 q 575 79 597 96 l 552 62 l 504 126 l 553 408 l 621 462 l 665 408 m 239 408 l 189 126 l 113 62 l 98 79 q 79 123 79 103 q 84 160 79 134 l 127 408 l 195 462 l 239 408 m 205 111 l 482 111 l 532 47 l 499 22 q 467 3 479 6 q 418 0 455 0 l 216 0 q 170 4 182 0 q 146 22 158 7 l 127 45 l 205 111 z "},"k":{"ha":685,"x_min":83,"x_max":774,"o":"m 340 878 l 279 535 l 218 481 l 168 535 l 229 878 l 298 935 l 340 878 m 759 840 l 395 542 l 305 542 l 320 626 l 691 926 l 774 926 l 759 840 m 301 519 l 530 519 q 567 517 560 519 q 588 500 574 515 l 622 465 l 552 408 l 281 408 l 233 464 l 301 519 m 255 395 l 194 50 l 131 -9 l 83 50 l 143 393 l 212 450 l 255 395 m 509 50 l 569 393 l 636 449 l 655 426 q 677 384 677 399 q 675 366 677 378 l 620 50 l 554 -9 l 509 50 z "},"l":{"ha":555,"x_min":77,"x_max":565,"o":"m 339 873 l 277 518 l 213 462 l 165 518 l 228 873 l 296 935 l 339 873 m 257 408 l 208 128 l 77 19 l 146 408 l 213 462 l 257 408 m 227 111 l 518 111 l 565 55 l 498 0 l 93 0 l 227 111 z "},"m":{"ha":685,"x_min":83,"x_max":754,"o":"m 625 814 l 350 814 l 298 877 l 354 926 l 664 926 l 701 877 l 625 814 m 540 790 l 501 572 l 437 519 l 390 572 l 429 790 l 540 790 m 327 802 l 277 519 l 214 464 l 166 519 l 216 806 l 281 861 l 327 802 m 754 810 l 703 519 l 637 464 l 592 519 l 641 797 l 716 858 l 754 810 m 257 408 l 195 52 l 130 -9 l 83 52 l 146 408 l 214 464 l 257 408 m 683 408 l 621 52 l 554 -9 l 509 52 l 572 408 l 637 464 l 683 408 z "},"n":{"ha":685,"x_min":83,"x_max":766,"o":"m 340 877 l 277 518 l 213 463 l 165 518 l 229 877 l 296 935 l 340 877 m 430 877 l 583 608 l 567 519 l 507 519 l 350 792 l 365 877 l 430 877 m 766 877 l 703 518 l 636 463 l 591 518 l 655 877 l 720 935 l 766 877 m 257 408 l 195 52 l 130 -9 l 83 52 l 146 408 l 213 463 l 257 408 m 683 408 l 621 52 l 553 -9 l 509 52 l 572 408 l 636 463 l 683 408 z "},"o":{"ha":685,"x_min":97,"x_max":751,"o":"m 625 814 l 347 814 l 298 875 l 332 903 q 388 926 359 925 l 632 926 q 660 921 649 926 q 680 903 670 916 l 702 876 l 625 814 m 326 800 l 277 519 l 211 461 l 166 519 l 208 759 q 218 802 214 793 q 237 824 222 812 l 279 860 l 326 800 m 591 519 l 641 796 l 718 859 l 734 840 q 751 799 751 819 q 749 781 751 791 l 703 519 l 636 463 l 591 519 m 257 408 l 208 124 l 131 62 l 112 85 q 97 123 97 102 q 98 137 97 127 l 146 408 l 211 461 l 257 408 m 522 125 l 572 408 l 637 463 l 683 408 l 641 167 q 631 122 634 130 q 612 102 627 115 l 570 67 l 522 125 m 226 111 l 498 111 l 549 51 l 511 16 q 454 0 486 -1 l 220 0 q 169 16 184 0 l 146 45 l 226 111 z "},"p":{"ha":667,"x_min":83,"x_max":750,"o":"m 625 814 l 348 814 l 258 926 l 621 926 q 659 921 648 926 q 683 900 669 917 l 702 878 l 625 814 m 326 798 l 279 532 l 217 479 l 168 532 l 235 912 l 326 798 m 594 532 l 641 798 l 717 861 l 730 845 q 750 796 750 822 q 749 780 750 787 l 715 589 q 704 544 709 555 q 684 519 699 532 l 636 479 l 594 532 m 299 519 l 576 519 l 618 465 l 574 429 q 544 411 555 415 q 509 408 533 408 l 278 408 l 233 463 l 299 519 m 255 397 l 194 49 l 131 -9 l 83 49 l 142 389 l 212 448 l 255 397 z "},"q":{"ha":685,"x_min":100,"x_max":751,"o":"m 625 814 l 352 814 l 300 876 l 330 901 q 399 926 363 926 l 618 926 q 662 922 651 926 q 686 901 673 918 l 703 880 l 625 814 m 327 802 l 277 518 l 211 464 l 165 518 l 211 778 q 223 813 216 802 q 254 842 231 825 l 280 861 l 327 802 m 591 518 l 640 799 l 718 862 l 730 848 q 751 802 751 825 q 748 778 751 793 l 703 518 l 637 464 l 591 518 m 257 407 l 208 125 l 136 66 l 117 89 q 100 135 100 109 q 101 155 100 146 l 146 407 l 211 464 l 257 407 m 536 203 l 572 407 l 637 464 l 683 407 l 646 201 l 583 149 l 536 203 m 226 111 l 410 111 l 459 52 l 395 0 l 242 0 q 196 5 212 0 q 170 25 180 11 l 151 49 l 226 111 m 452 184 l 523 184 l 646 43 l 634 -25 l 560 -25 l 439 111 l 452 184 z "},"r":{"ha":685,"x_min":83,"x_max":751,"o":"m 624 814 l 349 814 l 257 926 l 627 926 q 675 909 659 926 l 703 878 l 624 814 m 326 798 l 279 532 l 218 482 l 168 532 l 235 909 l 326 798 m 594 532 l 641 798 l 718 861 l 735 843 q 751 802 751 825 q 749 778 751 795 l 712 572 q 687 519 707 540 l 638 478 l 594 532 m 302 519 l 575 519 l 621 463 l 575 423 q 552 410 564 413 q 512 408 541 408 l 280 408 l 231 463 l 302 519 m 255 396 l 194 48 l 131 -9 l 83 48 l 142 385 l 212 447 l 255 396 m 357 385 l 624 71 l 610 -9 l 544 -9 l 267 319 l 278 385 l 357 385 z "},"s":{"ha":685,"x_min":138,"x_max":711,"o":"m 644 814 l 348 814 l 296 876 l 329 904 q 358 923 347 920 q 399 926 368 926 l 663 926 l 711 868 l 644 814 m 326 802 l 279 533 l 213 479 l 194 501 q 173 553 173 526 q 176 576 173 562 l 209 765 q 222 809 214 795 q 250 839 229 823 l 279 861 l 326 802 m 299 519 l 537 519 q 577 514 566 519 q 604 488 589 509 l 622 464 l 553 408 l 313 408 q 276 414 289 408 q 248 439 263 420 l 229 463 l 299 519 m 522 121 l 568 390 l 636 444 l 659 414 q 675 374 675 393 q 673 352 675 366 l 636 142 q 606 91 631 113 l 570 62 l 522 121 m 205 111 l 499 111 l 553 47 l 527 24 q 496 5 510 9 q 456 0 483 0 l 185 0 l 138 54 l 205 111 z "},"t":{"ha":574,"x_min":172,"x_max":709,"o":"m 642 814 l 222 814 l 172 868 l 234 926 l 662 926 l 709 868 l 642 814 m 478 788 l 429 511 l 364 458 l 319 519 l 367 788 l 478 788 m 411 408 l 347 45 l 282 -9 l 236 45 l 300 408 l 364 458 l 411 408 z "},"u":{"ha":685,"x_min":98,"x_max":766,"o":"m 339 876 l 277 518 l 214 464 l 165 518 l 229 876 l 296 935 l 339 876 m 766 876 l 703 518 l 636 464 l 591 518 l 654 876 l 720 935 l 766 876 m 257 408 l 207 123 l 132 65 l 115 84 q 98 126 98 105 q 101 157 98 136 l 146 408 l 214 465 l 257 408 m 683 408 l 637 147 q 627 115 633 125 q 603 90 621 106 l 570 63 l 522 123 l 572 408 l 636 465 l 683 408 m 224 111 l 499 111 l 552 48 l 521 22 q 490 4 503 8 q 448 0 477 0 l 236 0 q 194 4 208 0 q 170 22 181 9 l 146 50 l 224 111 z "},"v":{"ha":667,"x_min":83,"x_max":766,"o":"m 340 876 l 277 518 l 214 463 l 165 518 l 229 876 l 297 935 l 340 876 m 766 876 l 703 518 l 637 463 l 591 518 l 654 876 l 720 935 l 766 876 m 257 408 l 194 48 l 130 -9 l 83 48 l 146 408 l 214 463 l 257 408 m 602 381 l 222 69 l 252 237 l 529 463 l 610 463 l 602 381 z "},"w":{"ha":685,"x_min":95,"x_max":766,"o":"m 224 111 l 499 111 l 551 49 l 495 0 l 186 0 l 148 49 l 224 111 m 309 136 l 348 355 l 412 408 l 459 355 l 420 136 l 309 136 m 522 123 l 572 408 l 635 463 l 684 408 l 633 120 l 568 65 l 522 123 m 95 116 l 146 408 l 212 463 l 257 408 l 208 129 l 133 68 l 95 116 m 592 518 l 654 875 l 719 935 l 766 875 l 703 518 l 635 462 l 592 518 m 166 518 l 229 875 l 295 935 l 340 875 l 277 518 l 212 462 l 166 518 z "},"x":{"ha":611,"x_min":37,"x_max":738,"o":"m 274 926 l 397 566 l 380 471 l 313 471 l 185 838 l 201 926 l 274 926 m 738 926 l 720 825 l 489 471 l 402 471 l 419 566 l 653 926 l 738 926 m 376 448 l 359 354 l 127 0 l 37 0 l 53 87 l 289 448 l 376 448 m 469 448 l 590 87 l 574 0 l 503 0 l 382 354 l 398 448 l 469 448 z "},"y":{"ha":667,"x_min":125,"x_max":747,"o":"m 321 873 l 260 533 l 199 479 l 178 503 q 155 553 155 529 q 158 582 155 566 l 210 873 l 279 935 l 321 873 m 747 873 l 686 533 l 623 477 l 575 533 l 635 873 l 704 935 l 747 873 m 280 519 l 557 519 l 604 463 l 536 408 l 323 408 q 266 412 279 408 q 237 436 253 416 l 214 463 l 280 519 m 662 393 l 619 150 q 587 92 612 114 l 550 62 l 503 122 l 550 391 l 618 447 l 662 393 m 186 111 l 485 111 l 533 49 l 496 17 q 470 3 483 6 q 427 0 458 0 l 167 0 l 125 60 l 186 111 z "},"z":{"ha":574,"x_min":47,"x_max":690,"o":"m 644 926 l 690 870 l 624 814 l 248 814 l 201 870 l 268 926 l 644 926 m 620 705 l 456 481 l 375 460 l 368 549 l 545 791 l 620 791 l 620 705 m 380 377 l 203 134 l 118 134 l 118 205 l 288 439 l 374 460 l 380 377 m 500 111 l 547 56 l 480 0 l 95 0 l 47 56 l 115 111 l 500 111 z "},"{":{"ha":458,"x_min":98,"x_max":592,"o":"m 523 814 l 436 814 l 385 876 l 410 901 q 459 926 436 925 l 543 926 l 592 869 l 523 814 m 414 802 l 368 541 l 304 485 l 256 541 l 296 767 q 306 804 301 794 q 327 827 311 814 l 367 861 l 414 802 m 294 126 l 219 64 l 199 90 q 185 128 185 110 q 187 147 185 136 l 231 395 l 298 452 l 342 395 l 294 126 m 315 111 l 399 111 l 447 54 l 379 0 l 306 0 q 254 23 275 -1 l 236 45 l 315 111 m 165 523 l 239 523 l 286 467 l 220 412 l 146 412 l 98 467 l 165 523 z "},"|":{"ha":694,"x_min":394,"x_max":486,"o":"m 394 926 l 486 926 l 486 -231 l 394 -231 l 394 926 z "},"}":{"ha":458,"x_min":28,"x_max":522,"o":"m 98 111 l 185 111 l 236 50 l 210 25 q 161 0 185 1 l 79 0 l 28 57 l 98 111 m 207 124 l 254 386 l 316 441 l 365 386 l 324 159 q 314 121 319 132 q 294 98 309 111 l 254 64 l 207 124 m 326 800 l 401 863 l 421 836 q 435 798 435 816 q 433 779 435 789 l 389 530 l 322 475 l 278 530 l 326 800 m 306 814 l 222 814 l 174 871 l 241 926 l 315 926 q 366 903 345 926 l 385 880 l 306 814 m 456 403 l 381 403 l 336 458 l 401 514 l 475 514 l 522 458 l 456 403 z "},"~":{"ha":926,"x_min":129,"x_max":798,"o":"m 194 805 l 129 847 q 180 936 158 906 q 321 1010 235 1010 q 475 964 373 1010 q 560 929 536 937 q 608 921 584 921 q 673 941 647 921 q 731 1013 700 960 l 798 975 q 718 861 758 895 q 595 814 663 814 q 529 827 566 814 q 399 881 492 840 q 313 904 347 904 q 250 881 277 904 q 194 805 223 859 z "}}}
